<?xml version="1.0" encoding="UTF-8" standalone="no" ?>
<!DOCTYPE svg PUBLIC "-//W3C//DTD SVG 1.1//EN" "http://www.w3.org/Graphics/SVG/1.1/DTD/svg11.dtd">
<svg xmlns="http://www.w3.org/2000/svg" xmlns:xlink="http://www.w3.org/1999/xlink" version="1.1" width="408" height="93" viewBox="0 0 408 93" xml:space="preserve">
<desc>Created with Fabric.js 5.2.4</desc>
<defs>
</defs>
<rect x="0" y="0" width="100%" height="100%" fill="transparent"></rect>
<g transform="matrix(0 0 0 0 0 0)" id="893ff6ac-d53d-4d74-9015-1d43ac83f7cb"  >
</g>
<g transform="matrix(1 0 0 1 204 46.5)" id="b779c8be-289d-4c08-b800-7742e8b56bda"  >
<rect style="stroke: none; stroke-width: 1; stroke-dasharray: none; stroke-linecap: butt; stroke-dashoffset: 0; stroke-linejoin: miter; stroke-miterlimit: 4; fill: rgb(255,255,255); fill-rule: nonzero; opacity: 1; visibility: hidden;" vector-effect="non-scaling-stroke"  x="-204" y="-46.5" rx="0" ry="0" width="408" height="93" />
</g>
<g transform="matrix(0.91 0 0 0.91 204 46.5)"  >
<g style=""   >
		<g transform="matrix(1 0 0 1 -159.22 -0.05)"  >
<path style="stroke: none; stroke-width: 1; stroke-dasharray: none; stroke-linecap: butt; stroke-dashoffset: 0; stroke-linejoin: miter; stroke-miterlimit: 4; fill: rgb(0,0,0); fill-rule: evenodd; opacity: 1;" vector-effect="non-scaling-stroke"  transform=" translate(-44.78, -46.45)" d="M 5.69722 0 L 84.216 0 L 86.4705 2.3058 C 88.0254 3.7881 88.8805 5.68216 89.1915 8.23501 C 89.5024 10.2938 89.6579 28.8225 89.5024 49.41 C 89.2692 81.0325 89.1137 87.1264 88.1031 88.691 C 87.4812 89.7616 85.8486 91.1615 84.6047 91.8204 C 82.5835 92.9733 77.5303 93.1379 4.91981 92.6438 L 2.97627 90.5851 C 1.26596 88.8557 0.877255 87.4558 0.255324 81.5266 C -0.133383 77.6561 -0.133383 58.8803 0.644031 4.85865 L 5.69722 0 Z M 5.23077 5.92921 C 4.14239 7.57621 3.98691 11.7761 4.06465 46.6925 C 4.14239 84.4912 4.22013 85.7264 5.69722 87.2911 C 7.17431 88.9381 8.26268 88.9381 44.7234 89.0204 C 79.707 89.0204 82.3502 88.9381 83.5941 87.5381 C 84.838 86.2205 84.9157 82.8442 84.9934 45.9514 C 84.9934 6.58801 84.9934 5.76451 83.4386 4.94101 C 82.428 4.4469 67.7349 4.1175 44.1792 4.1175 L 6.55238 4.1175 L 5.23077 5.92921 Z M 45.5786 7.82326 L 45.5008 31.7048 L 37.1825 31.7048 L 37.027 19.9287 C 36.9493 13.4231 37.1047 7.90561 37.338 7.74091 C 37.5712 7.49386 39.5925 7.41151 45.5786 7.82326 Z M 29.0196 13.5054 C 29.4083 13.8348 30.73 16.3053 32.0516 19.1876 C 33.5286 22.3992 34.3838 25.6109 34.3838 27.8343 C 34.3838 30.5519 34.1506 31.2107 33.2177 30.8813 C 32.4403 30.6068 32.1293 30.9636 32.2848 31.9518 C 32.3625 32.693 32.7512 33.8459 33.0622 34.4223 C 33.3732 34.9164 32.9845 36.1517 32.207 36.9752 C 31.5074 37.7987 29.9525 39.1163 28.7087 39.8574 C 27.0761 40.8456 26.4542 40.928 26.0655 40.1868 C 25.8322 39.528 26.7651 38.0457 28.3977 36.4811 C 29.9525 34.9988 31.2741 33.6812 31.2741 33.5988 C 31.2741 33.4341 29.5638 33.3518 27.5426 33.2694 C 24.7439 33.2694 22.4894 32.4459 18.0581 29.8931 C 14.8707 28.0814 12.3052 26.1873 12.4607 25.8579 C 12.5385 25.4462 14.6375 25.2815 17.1252 25.3638 C 19.5352 25.5285 23.1113 26.2697 25.0548 26.9285 C 26.9984 27.5873 29.2529 28.8225 30.0303 29.5637 C 31.4296 30.7989 31.5074 30.7989 30.8854 29.2343 C 30.5745 28.3284 29.7971 25.7756 29.1751 23.4698 C 28.6309 21.2463 28.1645 17.9523 28.2422 16.223 C 28.2422 14.4936 28.6309 13.2584 29.0196 13.5054 Z M 45.5008 34.9988 L 45.6563 59.2921 L 37.1047 59.2921 L 37.1825 47.1866 C 37.2602 40.4339 37.4157 34.9164 37.4935 34.7517 C 37.4935 34.587 39.3592 34.587 45.5008 34.9988 Z M 59.2611 37.0575 L 59.2611 46.5278 C 59.2611 51.7159 59.4943 55.9981 59.8052 55.9981 C 60.1939 55.9981 61.2823 54.104 62.3707 51.8806 C 63.4591 49.5748 64.7807 47.6807 65.2471 47.7631 C 66.0245 47.7631 66.1023 48.916 65.7913 52.1276 C 65.4804 54.4334 64.7807 57.398 64.2365 58.7156 C 63.6146 59.9509 63.3813 60.9391 63.6923 60.9391 C 64.081 60.9391 65.7136 60.3626 67.4239 59.7038 C 69.1342 59.045 71.6997 58.5509 73.0213 58.4686 C 74.5761 58.4686 75.5867 58.8803 75.5867 59.5391 C 75.5867 60.0332 74.0319 61.3508 72.0884 62.4214 C 70.1448 63.4096 67.8903 64.2331 67.0352 64.2331 C 66.18 64.2331 65.4804 64.3978 65.4804 64.6448 C 65.4804 64.8919 67.4239 67.1977 69.8339 69.8329 C 72.1661 72.3857 73.8764 74.8562 73.4877 75.1856 C 73.1768 75.515 71.0777 74.7739 68.9787 73.4563 C 66.802 72.221 64.3142 69.8329 63.3036 68.2682 C 62.293 66.7036 61.8265 65.386 62.293 65.3036 C 62.7594 65.1389 62.9926 64.4801 62.7594 63.8213 C 62.5262 63.1625 61.8265 62.5861 61.2046 62.5861 C 60.5826 62.5861 60.0385 62.092 60.0385 61.5979 C 60.0385 60.8567 58.6391 60.5273 51.0982 60.5273 L 51.0205 49.41 C 51.0205 43.3161 51.0982 38.0457 51.2537 37.7163 C 51.4092 37.3046 53.275 37.0575 59.2611 37.0575 Z M 37.1047 62.5861 L 45.6563 62.5861 L 45.6563 74.5268 C 45.6563 81.1148 45.5008 86.5499 45.2676 86.5499 C 45.0344 86.6323 43.7905 86.797 42.5466 86.9617 C 41.225 87.1264 39.5147 87.1264 38.6596 86.8793 C 37.1825 86.5499 37.1047 85.8911 37.1047 74.5268 L 37.1047 62.5861 Z M 51.0982 63.4096 L 59.2611 63.4096 L 58.8723 86.8793 L 51.0982 86.8793 L 51.0982 63.4096 Z" stroke-linecap="round" />
</g>
		<g transform="matrix(1 0 0 1 42.06 8.76)"  >
<path style="stroke: none; stroke-width: 1; stroke-dasharray: none; stroke-linecap: butt; stroke-dashoffset: 0; stroke-linejoin: miter; stroke-miterlimit: 4; fill: rgb(0,0,0); fill-rule: nonzero; opacity: 1;" vector-effect="non-scaling-stroke"  transform=" translate(-246.06, -55.26)" d="M 123.351 68.3866 C 123.476 67.2418 123.862 66.1095 124.509 64.9895 C 125.156 63.8696 125.89 62.9737 126.711 62.3017 C 128.876 63.7203 131.278 64.9149 133.916 65.8855 C 136.554 66.8561 139.167 67.3414 141.755 67.3414 C 144.767 67.3414 147.094 66.6943 148.736 65.4002 C 150.404 64.0812 151.237 62.3888 151.237 60.3232 C 151.237 58.5811 150.653 57.0381 149.483 55.6942 C 148.313 54.3254 146.633 53.1806 144.443 52.2598 L 135.409 48.4521 C 132.298 47.1331 129.81 45.4407 127.943 43.3751 C 126.077 41.3095 125.143 38.6839 125.143 35.4983 C 125.143 32.7856 125.853 30.3467 127.271 28.1815 C 128.715 25.9915 130.706 24.2618 133.244 22.9926 C 135.783 21.6984 138.719 21.0514 142.054 21.0514 C 145.165 21.0514 148.089 21.4496 150.827 22.246 C 153.564 23.0423 155.904 23.9258 157.845 24.8964 C 157.795 26.0412 157.509 27.186 156.986 28.3309 C 156.464 29.4508 155.792 30.3716 154.971 31.0933 C 153.029 30.1227 150.889 29.3014 148.55 28.6295 C 146.235 27.9327 144.107 27.5842 142.166 27.5842 C 139.404 27.5842 137.226 28.2562 135.633 29.6001 C 134.04 30.944 133.244 32.6114 133.244 34.6024 C 133.244 36.2449 133.816 37.5889 134.961 38.6341 C 136.131 39.6794 137.637 40.5877 139.478 41.3592 L 148.4 45.055 C 150.516 45.9509 152.42 47.0584 154.112 48.3774 C 155.804 49.6964 157.136 51.2394 158.106 53.0064 C 159.077 54.7734 159.562 56.7768 159.562 59.0166 C 159.562 61.8538 158.89 64.4047 157.546 66.6694 C 156.202 68.9341 154.187 70.726 151.499 72.045 C 148.811 73.3392 145.401 73.9862 141.27 73.9862 C 138.184 73.9862 135.048 73.4885 131.863 72.493 C 128.702 71.4975 125.865 70.1287 123.351 68.3866 Z M 197.54 62.563 C 197.54 64.0314 197.677 65.4002 197.95 66.6694 C 198.249 67.9138 198.809 68.8968 199.63 69.6185 C 199.431 70.3403 199.045 71.0869 198.473 71.8584 C 197.925 72.605 197.341 73.1774 196.718 73.5756 C 194.279 73.0778 192.513 71.9081 191.417 70.0665 C 190.347 68.2 189.812 66.0721 189.812 63.683 L 189.812 36.1703 C 190.335 36.0707 190.932 35.9961 191.604 35.9463 C 192.276 35.8965 192.96 35.8716 193.657 35.8716 C 194.354 35.8716 195.039 35.8965 195.71 35.9463 C 196.382 35.9961 196.992 36.0707 197.54 36.1703 L 197.54 62.563 Z M 168.086 44.0471 C 168.086 42.7529 167.999 41.5335 167.825 40.3886 C 167.65 39.219 167.339 38.1986 166.891 37.3275 C 167.464 36.8547 168.173 36.4689 169.019 36.1703 C 169.89 35.8468 170.786 35.685 171.707 35.685 C 173.2 35.685 174.258 36.0956 174.88 36.9169 C 175.502 37.7382 175.813 38.9452 175.813 40.538 L 175.813 59.5766 C 175.813 62.0653 176.124 63.8821 176.747 65.0269 C 177.394 66.1717 178.626 66.7441 180.442 66.7441 C 181.712 66.7441 183.068 66.4454 184.511 65.8481 C 185.955 65.2509 187.324 64.4047 188.618 63.3097 C 189.937 62.1897 190.994 60.8956 191.791 59.4273 L 191.791 66.7814 C 190.148 68.7226 188.107 70.3651 185.669 71.7091 C 183.255 73.0281 180.691 73.6876 177.978 73.6876 C 175.689 73.6876 173.81 73.1525 172.342 72.0824 C 170.873 70.9873 169.791 69.519 169.094 67.6773 C 168.422 65.8108 168.086 63.7327 168.086 61.4431 L 168.086 44.0471 Z M 239.191 39.6047 C 238.395 40.3015 237.847 41.297 237.549 42.5912 C 237.25 43.8604 237.101 45.2167 237.101 46.6602 L 237.101 68.7973 C 237.101 71.6344 236.964 74.036 236.69 76.0021 C 236.441 77.993 236.056 79.6605 235.533 81.0044 C 235.01 82.3732 234.351 83.5429 233.554 84.5135 C 232.385 86.0067 230.742 87.2013 228.627 88.0972 C 226.511 89.018 224.048 89.4784 221.235 89.4784 C 218.946 89.4784 216.644 89.2296 214.329 88.7318 C 212.015 88.2341 209.999 87.6368 208.282 86.94 C 208.306 85.9942 208.506 84.9614 208.879 83.8415 C 209.277 82.7216 209.762 81.8381 210.335 81.191 C 211.903 81.9128 213.62 82.4727 215.486 82.8709 C 217.353 83.294 219.02 83.5055 220.489 83.5055 C 223.027 83.5055 224.956 83.0327 226.275 82.087 C 227.594 81.1661 228.49 79.9093 228.963 78.3166 C 229.436 76.7487 229.672 75.0066 229.672 73.0903 L 229.672 45.4283 C 229.672 43.064 230.17 40.9611 231.165 39.1194 C 232.161 37.2529 233.878 36.0832 236.317 35.6103 C 236.939 35.9836 237.536 36.5685 238.109 37.3649 C 238.681 38.1613 239.042 38.9079 239.191 39.6047 Z M 206.751 54.649 C 206.751 50.219 207.448 46.5731 208.842 43.7111 C 210.235 40.8491 212.027 38.7212 214.217 37.3275 C 216.407 35.909 218.672 35.1997 221.011 35.1997 C 223.177 35.1997 225.055 35.5232 226.648 36.1703 C 228.241 36.8174 229.61 37.6386 230.755 38.6341 C 231.899 39.6296 232.895 40.65 233.741 41.6952 L 232.696 48.2654 C 231.402 46.2247 229.796 44.5697 227.88 43.3004 C 225.964 42.0063 224.072 41.3592 222.206 41.3592 C 220.762 41.3592 219.456 41.8445 218.286 42.8151 C 217.141 43.7608 216.233 45.2167 215.561 47.1828 C 214.914 49.1489 214.59 51.6625 214.59 54.7236 C 214.59 59.1535 215.238 62.3515 216.532 64.3176 C 217.851 66.2588 219.419 67.2294 221.235 67.2294 C 223.251 67.2294 225.167 66.5823 226.984 65.2882 C 228.826 63.9941 230.257 62.3391 231.277 60.3232 L 232.435 66.2214 C 231.763 67.3414 230.804 68.4737 229.56 69.6185 C 228.316 70.7633 226.847 71.7215 225.155 72.493 C 223.488 73.2645 221.671 73.6502 219.705 73.6502 C 216.843 73.6502 214.441 72.8539 212.5 71.2611 C 210.584 69.6683 209.14 67.4534 208.17 64.6162 C 207.224 61.7542 206.751 58.4318 206.751 54.649 Z M 246.121 63.011 C 246.121 60.149 246.744 57.8096 247.988 55.9929 C 249.257 54.1512 250.962 52.7949 253.102 51.9238 C 255.267 51.0528 257.706 50.6172 260.419 50.6172 C 261.813 50.6172 263.381 50.6795 265.123 50.8039 C 266.89 50.9283 268.532 51.1648 270.05 51.5132 L 270.05 56.7021 C 268.731 56.3786 267.238 56.1795 265.571 56.1048 C 263.903 56.0053 262.348 55.9555 260.904 55.9555 C 258.64 55.9555 256.885 56.5404 255.641 57.7101 C 254.396 58.8549 253.774 60.4352 253.774 62.4511 C 253.774 63.9692 254.197 65.2633 255.043 66.3334 C 255.914 67.3787 257.171 67.9013 258.814 67.9013 C 260.631 67.9013 262.547 67.2792 264.563 66.0348 C 266.579 64.7656 268.283 62.899 269.677 60.4352 L 270.872 66.2961 C 269.976 67.3414 268.868 68.4613 267.549 69.6559 C 266.23 70.8504 264.7 71.8708 262.958 72.717 C 261.24 73.5631 259.287 73.9862 257.097 73.9862 C 254.633 73.9862 252.58 73.4387 250.937 72.3437 C 249.319 71.2486 248.112 69.8674 247.316 68.2 C 246.52 66.5077 246.121 64.778 246.121 63.011 Z M 277.255 69.5812 C 277.081 70.278 276.708 71.0247 276.135 71.821 C 275.588 72.5925 275.003 73.1774 274.381 73.5756 C 272.813 73.2521 271.544 72.6672 270.573 71.821 C 269.602 70.9749 268.881 69.967 268.408 68.7973 C 267.96 67.6027 267.686 66.3459 267.587 65.0269 L 267.587 48.1908 C 267.587 45.8514 267.051 44.1715 265.981 43.1511 C 264.911 42.1059 263.406 41.5832 261.464 41.5832 C 259.598 41.5832 257.669 41.8694 255.678 42.4418 C 253.687 43.0142 251.696 43.6737 249.705 44.4204 C 249.108 43.8231 248.598 42.9893 248.175 41.9192 C 247.776 40.8242 247.552 39.7789 247.503 38.7834 C 248.896 38.1861 250.477 37.6262 252.244 37.1036 C 254.011 36.5809 255.815 36.1703 257.657 35.8716 C 259.523 35.5481 261.303 35.3863 262.995 35.3863 C 265.459 35.3863 267.599 35.8343 269.416 36.7302 C 271.232 37.6262 272.639 38.995 273.634 40.8366 C 274.654 42.6783 275.165 45.0301 275.165 47.8921 L 275.165 63.1977 C 275.165 64.5913 275.302 65.8233 275.575 66.8934 C 275.849 67.9387 276.409 68.8346 277.255 69.5812 Z M 307.817 36.0583 C 307.817 37.1036 307.667 38.3106 307.369 39.6794 C 307.095 41.0482 306.622 42.2676 305.95 43.3378 C 305.477 43.2133 304.98 43.1262 304.457 43.0765 C 303.934 43.0018 303.424 42.9645 302.926 42.9645 C 301.508 42.9645 300.263 43.2631 299.193 43.8604 C 298.148 44.4328 297.252 45.1919 296.506 46.1376 C 295.759 47.0833 295.124 48.1161 294.602 49.236 C 294.104 50.331 293.693 51.4261 293.37 52.5211 L 292.25 51.1025 C 292.275 49.3356 292.499 47.5561 292.922 45.7643 C 293.37 43.9475 294.029 42.2801 294.9 40.762 C 295.796 39.219 296.978 37.987 298.447 37.0662 C 299.915 36.1205 301.719 35.6477 303.86 35.6477 C 304.532 35.6477 305.179 35.685 305.801 35.7597 C 306.448 35.8094 307.12 35.909 307.817 36.0583 Z M 284.448 39.7167 C 284.622 39.0199 284.983 38.2732 285.53 37.4769 C 286.078 36.6556 286.65 36.0334 287.248 35.6103 C 289.736 36.1578 291.578 37.4146 292.772 39.3807 C 293.992 41.3219 294.689 43.7733 294.863 46.7349 L 294.863 73.0156 C 294.365 73.1152 293.78 73.1898 293.108 73.2396 C 292.436 73.2894 291.752 73.3143 291.055 73.3143 C 290.358 73.3143 289.674 73.2894 289.002 73.2396 C 288.33 73.1898 287.733 73.1152 287.21 73.0156 L 287.21 47.4068 C 287.21 45.4158 286.912 43.7857 286.314 42.5165 C 285.717 41.2473 285.095 40.314 284.448 39.7167 Z M 326.532 22.022 C 327.154 21.9224 327.913 21.8478 328.809 21.798 C 329.705 21.7482 330.489 21.7233 331.161 21.7233 C 331.758 21.7233 332.505 21.7482 333.4 21.798 C 334.321 21.8478 335.055 21.9349 335.603 22.0593 L 352.364 72.5303 C 351.792 72.8787 351.083 73.1276 350.237 73.2769 C 349.415 73.4511 348.582 73.5383 347.735 73.5383 C 346.466 73.5383 345.483 73.2521 344.786 72.6796 C 344.114 72.1072 343.517 70.9998 342.994 69.3572 L 334.782 43.3751 C 334.085 41.185 333.388 38.883 332.691 36.4689 C 331.994 34.03 331.372 31.8275 330.825 29.8614 L 330.414 29.8614 C 330.165 30.9813 329.866 32.2008 329.518 33.5198 C 329.17 34.8388 328.821 36.1205 328.473 37.3649 C 328.124 38.6092 327.813 39.6918 327.54 40.6126 L 317.199 73.0903 C 316.726 73.1898 316.191 73.2645 315.594 73.3143 C 314.996 73.364 314.387 73.3889 313.765 73.3889 C 313.093 73.3889 312.408 73.3392 311.711 73.2396 C 311.039 73.1401 310.442 73.0156 309.919 72.8663 L 309.695 72.4557 L 326.532 22.022 Z M 325.524 60.6965 C 325.3 60.6965 324.827 60.6965 324.105 60.6965 C 323.408 60.6716 322.699 60.6592 321.977 60.6592 C 321.256 60.6343 320.783 60.6219 320.559 60.6219 L 316.863 60.6219 L 319.327 54.1637 L 322.575 54.1637 C 322.799 54.1637 323.222 54.1637 323.844 54.1637 C 324.491 54.1388 325.125 54.1263 325.748 54.1263 C 326.37 54.1014 326.793 54.089 327.017 54.089 L 334.483 54.089 C 334.732 54.089 335.167 54.1014 335.79 54.1263 C 336.412 54.1263 337.046 54.1388 337.693 54.1637 C 338.365 54.1637 338.813 54.1637 339.037 54.1637 L 342.36 54.1637 L 344.488 60.6219 L 340.829 60.6219 C 340.605 60.6219 340.12 60.6343 339.373 60.6592 C 338.652 60.6592 337.93 60.6716 337.208 60.6965 C 336.486 60.6965 336.014 60.6965 335.79 60.6965 L 325.524 60.6965 Z M 360.826 22.022 C 361.398 21.9224 362.045 21.8478 362.767 21.798 C 363.513 21.7482 364.173 21.7233 364.745 21.7233 C 365.392 21.7233 366.077 21.7482 366.799 21.798 C 367.52 21.8478 368.18 21.9224 368.777 22.022 L 368.777 73.0156 C 368.18 73.1152 367.52 73.1898 366.799 73.2396 C 366.077 73.2894 365.392 73.3143 364.745 73.3143 C 364.173 73.3143 363.513 73.2894 362.767 73.2396 C 362.045 73.1898 361.398 73.1152 360.826 73.0156 L 360.826 22.022 Z" stroke-linecap="round" />
</g>
</g>
</g>
</svg>