<svg width="130" height="36" viewBox="0 0 130 36" fill="none" xmlns="http://www.w3.org/2000/svg">
<path fill-rule="evenodd" clip-rule="evenodd" d="M21.0906 4.26462L20.9421 4.17909C18.3863 2.70639 15.2373 2.70639 12.6814 4.17909L6.88388 7.51967C4.32802 8.99237 2.75355 11.714 2.75355 14.6594V21.3406C2.75355 24.286 4.32802 27.0077 6.88388 28.4803L12.6814 31.8208C15.2373 33.2935 18.3863 33.2935 20.9421 31.8208L26.7396 28.4803C29.2954 27.0077 30.8699 24.286 30.8699 21.3406V14.6594C30.8699 12.4919 30.0173 10.4455 28.5483 8.92892C29.2683 8.31513 29.7967 7.48406 30.0315 6.53741C32.2932 8.596 33.6235 11.5332 33.6235 14.6594V21.3406C33.6235 25.2677 31.5242 28.8966 28.1164 30.8602L22.3189 34.2008C18.911 36.1645 14.7125 36.1645 11.3046 34.2008L5.5071 30.8602C2.09929 28.8966 0 25.2677 0 21.3406V14.6594C0 10.7322 2.09929 7.10335 5.5071 5.13975L11.3046 1.79917C14.7125 -0.164422 18.911 -0.164422 22.3189 1.79917L22.5517 1.93334C21.8496 2.53491 21.3307 3.34367 21.0906 4.26462Z" fill="#0EC8FE"/>
<path d="M8.68896 18.0687C8.68896 13.6293 12.2949 10.0305 16.7432 10.0305C21.1912 10.0305 24.7973 13.6293 24.7973 18.0687C24.7973 22.5081 21.1912 26.1069 16.7432 26.1069C12.2949 26.1069 8.68896 22.5081 8.68896 18.0687Z" fill="#0EC8FE"/>
<path d="M28.6518 5.29007C28.6518 3.58263 27.2649 2.19847 25.554 2.19847C23.8432 2.19847 22.4563 3.58263 22.4563 5.29007C22.4563 6.99752 23.8432 8.38168 25.554 8.38168C27.2649 8.38168 28.6518 6.99752 28.6518 5.29007Z" fill="#0EC8FE"/>
<path d="M50.8388 15.3096V23.411C50.8388 23.9753 50.97 24.3884 51.2326 24.6504C51.5152 24.8922 51.9796 25.0131 52.6259 25.0131H54.5947V28.5802H51.9292C48.3551 28.5802 46.5681 26.8471 46.5681 23.3808V15.3096H44.569V11.8333H46.5681V7.69191H50.8388V11.8333H54.5947V15.3096H50.8388ZM56.5542 20.1463C56.5542 18.4534 56.8874 16.952 57.5538 15.6421C58.2402 14.3323 59.1591 13.3246 60.3101 12.6192C61.4811 11.9139 62.7836 11.5612 64.2174 11.5612C65.4693 11.5612 66.5597 11.8131 67.4886 12.317C68.4376 12.8208 69.1948 13.4556 69.7602 14.2214V11.8333H74.031V28.5802H69.7602V26.1316C69.215 26.9176 68.4578 27.5726 67.4886 28.0965C66.5394 28.6004 65.439 28.8522 64.1871 28.8522C62.7735 28.8522 61.4811 28.4895 60.3101 27.764C59.1591 27.0385 58.2402 26.0207 57.5538 24.7108C56.8874 23.3808 56.5542 21.8593 56.5542 20.1463ZM69.7602 20.2067C69.7602 19.1789 69.5583 18.3023 69.1545 17.5768C68.7505 16.8311 68.2053 16.2669 67.5189 15.884C66.8323 15.481 66.0953 15.2794 65.3078 15.2794C64.5202 15.2794 63.7933 15.4708 63.1269 15.8537C62.4606 16.2367 61.9154 16.8009 61.4913 17.5466C61.0874 18.2721 60.8856 19.1387 60.8856 20.1463C60.8856 21.1539 61.0874 22.0407 61.4913 22.8064C61.9154 23.5521 62.4606 24.1265 63.1269 24.5295C63.8134 24.9325 64.5403 25.134 65.3078 25.134C66.0953 25.134 66.8323 24.9426 67.5189 24.5597C68.2053 24.1567 68.7505 23.5924 69.1545 22.8669C69.5583 22.1212 69.7602 21.2345 69.7602 20.2067ZM80.323 9.83817C79.576 9.83817 78.95 9.60641 78.4451 9.14291C77.9605 8.65924 77.7182 8.06473 77.7182 7.35939C77.7182 6.65405 77.9605 6.06962 78.4451 5.60611C78.95 5.12245 79.576 4.88062 80.323 4.88062C81.0702 4.88062 81.686 5.12245 82.1706 5.60611C82.6755 6.06962 82.9279 6.65405 82.9279 7.35939C82.9279 8.06473 82.6755 8.65924 82.1706 9.14291C81.686 9.60641 81.0702 9.83817 80.323 9.83817ZM82.413 11.8333V28.5802H78.1725V11.8333H82.413ZM90.8431 6.21069V28.5802H86.6026V6.21069H90.8431ZM110.874 11.8333V28.5802H106.603V26.4641C106.058 27.1896 105.341 27.764 104.453 28.1872C103.584 28.5902 102.635 28.7918 101.605 28.7918C100.293 28.7918 99.1318 28.5197 98.1221 27.9756C97.1125 27.4113 96.315 26.5951 95.7293 25.527C95.164 24.4388 94.8812 23.149 94.8812 21.6577V11.8333H99.1216V21.0531C99.1216 22.3832 99.4548 23.411 100.121 24.1365C100.788 24.8418 101.696 25.1945 102.847 25.1945C104.018 25.1945 104.937 24.8418 105.604 24.1365C106.27 23.411 106.603 22.3832 106.603 21.0531V11.8333H110.874ZM121.479 28.8522C120.106 28.8522 118.874 28.6104 117.784 28.1267C116.693 27.6229 115.825 26.9478 115.179 26.1014C114.553 25.255 114.21 24.3179 114.149 23.2901H118.42C118.501 23.9349 118.814 24.469 119.359 24.8922C119.924 25.3154 120.621 25.527 121.449 25.527C122.256 25.527 122.882 25.3659 123.327 25.0434C123.791 24.7209 124.023 24.3078 124.023 23.804C124.023 23.2599 123.741 22.8568 123.175 22.5948C122.63 22.3127 121.752 22.0104 120.54 21.6879C119.288 21.3857 118.258 21.0733 117.451 20.7508C116.663 20.4284 115.977 19.9347 115.391 19.2696C114.826 18.6046 114.543 17.7077 114.543 16.5792C114.543 15.6522 114.805 14.8058 115.33 14.04C115.875 13.2742 116.643 12.6696 117.632 12.2263C118.642 11.7829 119.823 11.5612 121.176 11.5612C123.175 11.5612 124.77 12.065 125.962 13.0727C127.153 14.0602 127.809 15.4003 127.931 17.0931H123.872C123.811 16.4281 123.529 15.9042 123.024 15.5212C122.539 15.1182 121.883 14.9166 121.055 14.9166C120.288 14.9166 119.692 15.0578 119.268 15.3399C118.864 15.6219 118.662 16.0149 118.662 16.5188C118.662 17.0831 118.945 17.5163 119.51 17.8186C120.076 18.1007 120.954 18.393 122.145 18.6953C123.357 18.9976 124.356 19.3099 125.144 19.6324C125.931 19.9549 126.608 20.4586 127.173 21.1438C127.759 21.8089 128.062 22.6955 128.082 23.804C128.082 24.7713 127.809 25.6379 127.264 26.4037C126.739 27.1694 125.972 27.774 124.962 28.2174C123.973 28.6406 122.812 28.8522 121.479 28.8522Z" fill="#64777C"/>
</svg>
