<svg width="296" height="256" viewBox="0 0 296 256" fill="none" xmlns="http://www.w3.org/2000/svg">
<rect opacity="0.4" x="21.5" y="32.5" width="254" height="191" rx="5.5" stroke="#718095"/>
<path d="M21 38C21 34.6863 23.6863 32 27 32H90V224H27C23.6863 224 21 221.314 21 218V38Z" fill="white" fill-opacity="0.15"/>
<rect x="30" y="125" width="51" height="6" rx="3" fill="#718095"/>
<rect x="30" y="139" width="51" height="6" rx="3" fill="#718095"/>
<rect x="30" y="153" width="51" height="6" rx="3" fill="#718095"/>
<rect x="30" y="167" width="51" height="6" rx="3" fill="#718095"/>
<rect x="102" y="60" width="163" height="149" rx="3" stroke="#718095" stroke-linecap="round" stroke-linejoin="round" stroke-dasharray="2 4"/>
<circle cx="55.5" cy="78.5" r="15.5" fill="#D1D5DB"/>
<rect x="35" y="100" width="12.4781" height="5.54583" rx="2.77291" fill="#D1D5DB"/>
<rect x="51.6375" y="100" width="24.9562" height="5.54583" rx="2.77291" fill="#D1D5DB"/>
<rect x="102" y="42" width="29" height="6" rx="3" fill="#D1D5DB"/>
<rect x="239" y="42" width="6" height="6" rx="3" fill="#D1D5DB"/>
<rect x="249" y="42" width="6" height="6" rx="3" fill="#D1D5DB"/>
<rect x="259" y="42" width="6" height="6" rx="3" fill="#D1D5DB"/>
</svg>
