<svg width="296" height="256" viewBox="0 0 296 256" fill="none" xmlns="http://www.w3.org/2000/svg">
<rect x="42" y="101" width="56" height="81" rx="6" fill="white" fill-opacity="0.15"/>
<circle cx="52" cy="112" r="4" fill="#4B5563"/>
<path d="M51.512 113V110.688H51.16L51.292 110.2H52V113H51.512Z" fill="#D1D5DB"/>
<rect x="48" y="126" width="29" height="6" rx="3" fill="#D1D5DB"/>
<rect x="48" y="142" width="33" height="3" rx="1.5" fill="#718095"/>
<rect x="48" y="148" width="29" height="3" rx="1.5" fill="#718095"/>
<rect x="48" y="154" width="44" height="3" rx="1.5" fill="#718095"/>
<rect x="48" y="167" width="8" height="8" rx="4" fill="#4B5563"/>
<rect x="118" y="101" width="56" height="83" rx="3" fill="white" fill-opacity="0.15"/>
<circle cx="128" cy="112" r="4" fill="#0DCBFD" fill-opacity="0.15"/>
<path d="M127.16 113V112.564C127.247 112.499 127.349 112.418 127.468 112.322C127.587 112.225 127.709 112.12 127.834 112.008C127.959 111.895 128.075 111.781 128.182 111.668C128.289 111.555 128.375 111.447 128.442 111.344C128.51 111.241 128.544 111.153 128.544 111.08C128.544 110.999 128.524 110.925 128.484 110.858C128.444 110.79 128.391 110.736 128.324 110.696C128.259 110.656 128.185 110.636 128.104 110.636C128.023 110.636 127.949 110.656 127.882 110.696C127.815 110.736 127.762 110.79 127.722 110.858C127.682 110.925 127.662 110.999 127.662 111.08H127.174C127.174 110.904 127.217 110.746 127.302 110.606C127.387 110.465 127.5 110.353 127.64 110.272C127.781 110.189 127.936 110.148 128.104 110.148C128.275 110.148 128.43 110.19 128.57 110.274C128.71 110.357 128.822 110.469 128.906 110.61C128.99 110.751 129.032 110.908 129.032 111.08C129.032 111.171 129.015 111.262 128.982 111.354C128.949 111.446 128.902 111.539 128.842 111.632C128.782 111.725 128.711 111.82 128.63 111.916C128.549 112.011 128.459 112.108 128.36 112.208C128.263 112.307 128.16 112.408 128.052 112.512H129.046V113H127.16Z" fill="#0DCBFD"/>
<rect x="124" y="126" width="29" height="6" rx="3" fill="#0DCBFD"/>
<rect x="124" y="142" width="33" height="3" rx="1.5" fill="#718095"/>
<rect x="124" y="148" width="29" height="3" rx="1.5" fill="#718095"/>
<rect x="124" y="154" width="44" height="3" rx="1.5" fill="#718095"/>
<rect x="124" y="167" width="8" height="8" rx="4" fill="#0DCBFD"/>
<rect x="194" y="101" width="56" height="81" rx="6" fill="white" fill-opacity="0.15"/>
<circle cx="204" cy="112" r="4" fill="#4B5563"/>
<path d="M204.022 113.052C203.853 113.052 203.7 113.012 203.564 112.932C203.428 112.852 203.32 112.745 203.24 112.61C203.16 112.474 203.12 112.323 203.12 112.158H203.608C203.608 112.233 203.625 112.301 203.66 112.362C203.696 112.423 203.745 112.473 203.808 112.51C203.871 112.546 203.942 112.564 204.022 112.564C204.095 112.564 204.163 112.546 204.226 112.51C204.29 112.473 204.341 112.423 204.38 112.362C204.419 112.301 204.438 112.233 204.438 112.158C204.438 112.061 204.412 111.98 204.36 111.916C204.308 111.851 204.235 111.802 204.142 111.77C204.05 111.738 203.943 111.722 203.82 111.722V111.346C203.985 111.346 204.116 111.315 204.212 111.252C204.309 111.189 204.358 111.097 204.358 110.976C204.358 110.913 204.342 110.856 204.31 110.804C204.278 110.752 204.235 110.711 204.182 110.68C204.13 110.648 204.073 110.632 204.01 110.632C203.946 110.632 203.884 110.648 203.824 110.68C203.764 110.711 203.715 110.752 203.676 110.804C203.639 110.856 203.62 110.913 203.62 110.976H203.132C203.132 110.861 203.155 110.754 203.202 110.654C203.249 110.553 203.313 110.464 203.394 110.388C203.477 110.312 203.57 110.253 203.674 110.21C203.779 110.166 203.889 110.144 204.004 110.144C204.155 110.144 204.294 110.181 204.422 110.256C204.55 110.331 204.653 110.431 204.73 110.556C204.807 110.681 204.846 110.821 204.846 110.976C204.846 111.084 204.821 111.19 204.77 111.294C204.719 111.398 204.647 111.471 204.554 111.514C204.635 111.543 204.703 111.593 204.758 111.662C204.813 111.73 204.854 111.808 204.882 111.896C204.911 111.983 204.926 112.07 204.926 112.158C204.926 112.322 204.885 112.472 204.802 112.608C204.719 112.743 204.609 112.851 204.472 112.932C204.336 113.012 204.186 113.052 204.022 113.052Z" fill="#D1D5DB"/>
<rect x="200" y="126" width="29" height="6" rx="3" fill="#D1D5DB"/>
<rect x="200" y="142" width="33" height="3" rx="1.5" fill="#718095"/>
<rect x="200" y="148" width="29" height="3" rx="1.5" fill="#718095"/>
<rect x="200" y="154" width="44" height="3" rx="1.5" fill="#718095"/>
<rect x="200" y="167" width="8" height="8" rx="4" fill="#4B5563"/>
<path d="M79.2792 57L81.7182 44.4H83.2302L86.4612 52.887L89.6742 44.4H91.1862L93.6342 57H91.7262L90.0972 48.567L87.0822 56.523H85.8222L82.8162 48.567L81.1872 57H79.2792ZM98.8838 57.234C98.0558 57.234 97.2998 57.021 96.6158 56.595C95.9378 56.169 95.3948 55.599 94.9868 54.885C94.5848 54.165 94.3838 53.37 94.3838 52.5C94.3838 51.84 94.5008 51.225 94.7348 50.655C94.9688 50.079 95.2898 49.575 95.6978 49.143C96.1118 48.705 96.5918 48.363 97.1378 48.117C97.6838 47.871 98.2658 47.748 98.8838 47.748C99.5738 47.748 100.207 47.892 100.783 48.18C101.359 48.462 101.851 48.855 102.259 49.359C102.667 49.857 102.967 50.433 103.159 51.087C103.351 51.735 103.408 52.425 103.33 53.157H96.3908C96.4688 53.571 96.6188 53.946 96.8408 54.282C97.0688 54.612 97.3568 54.873 97.7048 55.065C98.0588 55.257 98.4518 55.356 98.8838 55.362C99.3398 55.362 99.7538 55.248 100.126 55.02C100.504 54.792 100.813 54.477 101.053 54.075L102.952 54.516C102.592 55.314 102.049 55.968 101.323 56.478C100.597 56.982 99.7838 57.234 98.8838 57.234ZM96.3278 51.726H101.44C101.38 51.294 101.227 50.904 100.981 50.556C100.741 50.202 100.438 49.923 100.072 49.719C99.7118 49.509 99.3158 49.404 98.8838 49.404C98.4578 49.404 98.0618 49.506 97.6958 49.71C97.3358 49.914 97.0358 50.193 96.7958 50.547C96.5618 50.895 96.4058 51.288 96.3278 51.726ZM108.78 57.234C107.952 57.234 107.196 57.021 106.512 56.595C105.834 56.169 105.291 55.599 104.883 54.885C104.481 54.165 104.28 53.37 104.28 52.5C104.28 51.84 104.397 51.225 104.631 50.655C104.865 50.079 105.186 49.575 105.594 49.143C106.008 48.705 106.488 48.363 107.034 48.117C107.58 47.871 108.162 47.748 108.78 47.748C109.47 47.748 110.103 47.892 110.679 48.18C111.255 48.462 111.747 48.855 112.155 49.359C112.563 49.857 112.863 50.433 113.055 51.087C113.247 51.735 113.304 52.425 113.226 53.157H106.287C106.365 53.571 106.515 53.946 106.737 54.282C106.965 54.612 107.253 54.873 107.601 55.065C107.955 55.257 108.348 55.356 108.78 55.362C109.236 55.362 109.65 55.248 110.022 55.02C110.4 54.792 110.709 54.477 110.949 54.075L112.848 54.516C112.488 55.314 111.945 55.968 111.219 56.478C110.493 56.982 109.68 57.234 108.78 57.234ZM106.224 51.726H111.336C111.276 51.294 111.123 50.904 110.877 50.556C110.637 50.202 110.334 49.923 109.968 49.719C109.608 49.509 109.212 49.404 108.78 49.404C108.354 49.404 107.958 49.506 107.592 49.71C107.232 49.914 106.932 50.193 106.692 50.547C106.458 50.895 106.302 51.288 106.224 51.726ZM119.469 49.872H117.579L117.57 57H115.698L115.707 49.872H114.276V48H115.707L115.698 45.174H117.57L117.579 48H119.469V49.872ZM131.569 48H133.567L128.635 61.5H126.646L128.275 57L125.044 48H127.087L129.211 54.435L131.569 48ZM138.558 57.234C137.73 57.234 136.974 57.021 136.29 56.595C135.612 56.169 135.069 55.599 134.661 54.885C134.259 54.165 134.058 53.37 134.058 52.5C134.058 51.84 134.175 51.225 134.409 50.655C134.643 50.079 134.964 49.575 135.372 49.143C135.786 48.705 136.266 48.363 136.812 48.117C137.358 47.871 137.94 47.748 138.558 47.748C139.386 47.748 140.139 47.961 140.817 48.387C141.501 48.813 142.044 49.386 142.446 50.106C142.854 50.826 143.058 51.624 143.058 52.5C143.058 53.154 142.941 53.766 142.707 54.336C142.473 54.906 142.149 55.41 141.735 55.848C141.327 56.28 140.85 56.619 140.304 56.865C139.764 57.111 139.182 57.234 138.558 57.234ZM138.558 55.362C139.056 55.362 139.503 55.23 139.899 54.966C140.295 54.702 140.607 54.354 140.835 53.922C141.069 53.484 141.186 53.01 141.186 52.5C141.186 51.978 141.066 51.498 140.826 51.06C140.592 50.622 140.277 50.274 139.881 50.016C139.485 49.752 139.044 49.62 138.558 49.62C138.066 49.62 137.619 49.752 137.217 50.016C136.821 50.28 136.506 50.631 136.272 51.069C136.044 51.507 135.93 51.984 135.93 52.5C135.93 53.034 136.05 53.517 136.29 53.949C136.53 54.381 136.848 54.726 137.244 54.984C137.646 55.236 138.084 55.362 138.558 55.362ZM144.336 52.698V48H146.208V52.662C146.208 53.172 146.313 53.637 146.523 54.057C146.739 54.471 147.03 54.804 147.396 55.056C147.768 55.302 148.191 55.425 148.665 55.425C149.127 55.425 149.532 55.302 149.88 55.056C150.234 54.804 150.507 54.471 150.699 54.057C150.897 53.637 150.996 53.172 150.996 52.662V48H152.868V57H150.996V55.776C150.684 56.226 150.306 56.583 149.862 56.847C149.418 57.111 148.917 57.243 148.359 57.243C147.555 57.243 146.85 57.039 146.244 56.631C145.644 56.217 145.179 55.665 144.849 54.975C144.519 54.285 144.348 53.526 144.336 52.698ZM160.342 49.881C160.186 49.785 160.015 49.71 159.829 49.656C159.649 49.596 159.451 49.566 159.235 49.566C158.767 49.566 158.359 49.689 158.011 49.935C157.663 50.181 157.39 50.514 157.192 50.934C157 51.354 156.904 51.819 156.904 52.329V57H155.023V48H156.895V49.215C157.207 48.765 157.585 48.411 158.029 48.153C158.479 47.889 158.98 47.757 159.532 47.757C159.736 47.757 159.928 47.766 160.108 47.784C160.294 47.802 160.471 47.838 160.639 47.892L160.342 49.881ZM166.417 57V44.4H168.442L174.22 53.616V44.4H176.092V57H174.076L168.28 47.784V57H166.417ZM182.046 57.234C181.218 57.234 180.462 57.021 179.778 56.595C179.1 56.169 178.557 55.599 178.149 54.885C177.747 54.165 177.546 53.37 177.546 52.5C177.546 51.84 177.663 51.225 177.897 50.655C178.131 50.079 178.452 49.575 178.86 49.143C179.274 48.705 179.754 48.363 180.3 48.117C180.846 47.871 181.428 47.748 182.046 47.748C182.736 47.748 183.369 47.892 183.945 48.18C184.521 48.462 185.013 48.855 185.421 49.359C185.829 49.857 186.129 50.433 186.321 51.087C186.513 51.735 186.57 52.425 186.492 53.157H179.553C179.631 53.571 179.781 53.946 180.003 54.282C180.231 54.612 180.519 54.873 180.867 55.065C181.221 55.257 181.614 55.356 182.046 55.362C182.502 55.362 182.916 55.248 183.288 55.02C183.666 54.792 183.975 54.477 184.215 54.075L186.114 54.516C185.754 55.314 185.211 55.968 184.485 56.478C183.759 56.982 182.946 57.234 182.046 57.234ZM179.49 51.726H184.602C184.542 51.294 184.389 50.904 184.143 50.556C183.903 50.202 183.6 49.923 183.234 49.719C182.874 49.509 182.478 49.404 182.046 49.404C181.62 49.404 181.224 49.506 180.858 49.71C180.498 49.914 180.198 50.193 179.958 50.547C179.724 50.895 179.568 51.288 179.49 51.726ZM191.942 57.234C191.114 57.234 190.358 57.021 189.674 56.595C188.996 56.169 188.453 55.599 188.045 54.885C187.643 54.165 187.442 53.37 187.442 52.5C187.442 51.84 187.559 51.225 187.793 50.655C188.027 50.079 188.348 49.575 188.756 49.143C189.17 48.705 189.65 48.363 190.196 48.117C190.742 47.871 191.324 47.748 191.942 47.748C192.632 47.748 193.265 47.892 193.841 48.18C194.417 48.462 194.909 48.855 195.317 49.359C195.725 49.857 196.025 50.433 196.217 51.087C196.409 51.735 196.466 52.425 196.388 53.157H189.449C189.527 53.571 189.677 53.946 189.899 54.282C190.127 54.612 190.415 54.873 190.763 55.065C191.117 55.257 191.51 55.356 191.942 55.362C192.398 55.362 192.812 55.248 193.184 55.02C193.562 54.792 193.871 54.477 194.111 54.075L196.01 54.516C195.65 55.314 195.107 55.968 194.381 56.478C193.655 56.982 192.842 57.234 191.942 57.234ZM189.386 51.726H194.498C194.438 51.294 194.285 50.904 194.039 50.556C193.799 50.202 193.496 49.923 193.13 49.719C192.77 49.509 192.374 49.404 191.942 49.404C191.516 49.404 191.12 49.506 190.754 49.71C190.394 49.914 190.094 50.193 189.854 50.547C189.62 50.895 189.464 51.288 189.386 51.726ZM204.89 43.5H206.762V57H204.89V55.677C204.596 56.145 204.212 56.523 203.738 56.811C203.264 57.093 202.709 57.234 202.073 57.234C201.419 57.234 200.807 57.111 200.237 56.865C199.667 56.619 199.163 56.28 198.725 55.848C198.293 55.41 197.954 54.906 197.708 54.336C197.462 53.766 197.339 53.154 197.339 52.5C197.339 51.846 197.462 51.234 197.708 50.664C197.954 50.088 198.293 49.584 198.725 49.152C199.163 48.714 199.667 48.372 200.237 48.126C200.807 47.88 201.419 47.757 202.073 47.757C202.709 47.757 203.264 47.901 203.738 48.189C204.212 48.471 204.596 48.843 204.89 49.305V43.5ZM202.091 55.425C202.619 55.425 203.081 55.296 203.477 55.038C203.873 54.774 204.179 54.42 204.395 53.976C204.617 53.532 204.728 53.04 204.728 52.5C204.728 51.954 204.617 51.459 204.395 51.015C204.173 50.571 203.864 50.22 203.468 49.962C203.078 49.698 202.619 49.566 202.091 49.566C201.569 49.566 201.092 49.698 200.66 49.962C200.234 50.226 199.892 50.58 199.634 51.024C199.382 51.468 199.256 51.96 199.256 52.5C199.256 53.046 199.385 53.541 199.643 53.985C199.907 54.423 200.252 54.774 200.678 55.038C201.11 55.296 201.581 55.425 202.091 55.425ZM211.708 57.171C211.234 57.141 210.772 57.045 210.322 56.883C209.872 56.721 209.476 56.502 209.134 56.226C208.798 55.944 208.546 55.614 208.378 55.236L209.971 54.552C210.049 54.714 210.184 54.873 210.376 55.029C210.574 55.185 210.805 55.314 211.069 55.416C211.333 55.512 211.609 55.56 211.897 55.56C212.179 55.56 212.44 55.521 212.68 55.443C212.926 55.359 213.127 55.233 213.283 55.065C213.439 54.897 213.517 54.696 213.517 54.462C213.517 54.198 213.427 53.994 213.247 53.85C213.073 53.7 212.854 53.586 212.59 53.508C212.326 53.43 212.062 53.355 211.798 53.283C211.21 53.151 210.67 52.971 210.178 52.743C209.692 52.509 209.305 52.212 209.017 51.852C208.729 51.486 208.585 51.039 208.585 50.511C208.585 49.935 208.738 49.437 209.044 49.017C209.356 48.591 209.767 48.264 210.277 48.036C210.787 47.808 211.33 47.694 211.906 47.694C212.626 47.694 213.286 47.847 213.886 48.153C214.486 48.459 214.945 48.879 215.263 49.413L213.778 50.295C213.688 50.115 213.553 49.953 213.373 49.809C213.193 49.665 212.989 49.551 212.761 49.467C212.533 49.377 212.296 49.326 212.05 49.314C211.744 49.302 211.459 49.338 211.195 49.422C210.937 49.5 210.73 49.626 210.574 49.8C210.418 49.974 210.34 50.196 210.34 50.466C210.34 50.73 210.433 50.928 210.619 51.06C210.805 51.186 211.039 51.288 211.321 51.366C211.609 51.444 211.903 51.531 212.203 51.627C212.737 51.795 213.238 52.002 213.706 52.248C214.174 52.488 214.552 52.785 214.84 53.139C215.128 53.493 215.266 53.925 215.254 54.435C215.254 54.999 215.083 55.494 214.741 55.92C214.405 56.346 213.967 56.67 213.427 56.892C212.887 57.114 212.314 57.207 211.708 57.171Z" fill="white"/>
</svg>
