<svg width="296" height="256" viewBox="0 0 296 256" fill="none" xmlns="http://www.w3.org/2000/svg">
<rect opacity="0.4" x="20.5" y="20.5" width="254" height="176" rx="5.5" stroke="#718095"/>
<rect x="92" y="33" width="111" height="151" rx="4" fill="#D1D5DB" fill-opacity="0.15"/>
<rect x="104" y="63" width="45" height="2" rx="1" fill="#4B5563"/>
<rect x="104" y="45" width="11" height="11" rx="3" fill="#D1D5DB"/>
<rect x="119" y="48" width="26" height="5" rx="2.5" fill="#718095"/>
<rect x="125" y="168" width="45" height="2" rx="1" fill="#4B5563"/>
<rect x="119" y="162" width="57" height="2" rx="1" fill="#4B5563"/>
<rect x="104" y="91" width="87" height="11" rx="5.5" fill="#718095"/>
<rect x="108" y="94" width="5" height="5" rx="2.5" fill="white"/>
<rect x="128" y="95" width="39" height="3" rx="1.5" fill="white"/>
<rect x="104" y="108" width="87" height="11" rx="5.5" fill="#718095"/>
<rect x="108" y="111" width="5" height="5" rx="2.5" fill="white"/>
<rect x="122" y="112" width="54" height="3" rx="1.5" fill="white"/>
<rect x="104" y="125" width="87" height="11" rx="5.5" fill="#718095"/>
<rect x="108" y="128" width="5" height="5" rx="2.5" fill="white"/>
<rect x="126" y="129" width="45" height="3" rx="1.5" fill="white"/>
</svg>
