<svg width="296" height="256" viewBox="0 0 296 256" fill="none" xmlns="http://www.w3.org/2000/svg">
<rect x="49.4538" y="158.452" width="12.4781" height="5.54583" rx="2.77291" fill="#D1D5DB"/>
<rect x="66.0913" y="158.452" width="24.9562" height="5.54583" rx="2.77291" fill="#D1D5DB"/>
<rect x="42" y="129.337" width="40.0739" height="40.0739" rx="12" transform="rotate(-45 42 129.337)" fill="#95999F"/>
<path d="M50.4853 137.822C45.799 133.135 45.799 125.538 50.4853 120.851L61.8512 109.485C66.5375 104.799 74.1355 104.799 78.8218 109.485L90.1878 120.851C94.874 125.538 94.8741 133.135 90.1878 137.822L78.8218 149.188C74.1355 153.874 66.5375 153.874 61.8512 149.188L50.4853 137.822Z" fill="#D1D5DB"/>
<rect x="53.8365" y="178.464" width="6" height="6" rx="3" fill="#718095"/>
<rect x="62.8365" y="178.464" width="6" height="6" rx="3" fill="#718095"/>
<rect x="71.8365" y="178.464" width="6" height="6" rx="3" fill="#718095"/>
<rect x="80.8365" y="178.464" width="6" height="6" rx="3" fill="#718095"/>
<rect x="58.8365" y="169.998" width="24.9562" height="3.46614" rx="1.73307" fill="#3A424D"/>
<rect x="126.127" y="158.452" width="12.4781" height="5.54583" rx="2.77291" fill="#D1D5DB"/>
<rect x="142.764" y="158.452" width="24.9562" height="5.54583" rx="2.77291" fill="#D1D5DB"/>
<rect x="120.087" y="129.337" width="38.0739" height="38.0739" rx="11" transform="rotate(-45 120.087 129.337)" fill="#4B5563" stroke="#01FEE6" stroke-width="2"/>
<path fill-rule="evenodd" clip-rule="evenodd" d="M127.158 120.851C122.472 125.538 122.472 133.135 127.158 137.822L135.878 146.541C136.65 146.218 137.527 145.973 138.5 145.809C138.501 145.808 138.504 145.808 138.509 145.807C138.625 145.791 139.756 145.636 140.903 145.342C142.972 144.812 143.153 144.344 143.154 144.339C143.166 144.293 143.184 144.248 143.206 144.206C143.223 144.119 143.265 143.789 143.185 142.905C142.981 140.661 141.777 139.335 140.81 138.269V138.269L140.809 138.269C140.505 137.933 140.217 137.616 139.995 137.305C139.038 135.962 138.949 134.435 138.946 134.37C138.945 133.73 139.258 133.45 139.534 133.203L139.534 133.203C139.57 133.128 139.548 133.018 139.533 132.943C139.276 131.592 139.26 129.638 139.477 128.383C139.557 126.734 141.022 125.471 141.085 125.418C141.302 125.239 141.515 125.049 141.651 124.839C141.676 124.754 141.662 124.722 141.65 124.695V124.695V124.695L141.65 124.695C141.568 124.513 141.445 124.237 141.515 123.883C141.558 123.669 141.718 123.287 142.321 123.131C142.564 123.068 142.823 123.055 143.013 123.046C143.799 123.005 144.597 122.973 145.404 123.033C151.244 123.468 153.255 125.587 153.338 125.677C153.819 126.237 154.166 126.914 154.381 127.707C154.448 127.954 154.492 128.162 154.517 128.359C154.721 129.51 154.687 130.692 154.643 131.483C154.619 131.927 154.568 132.393 154.483 132.95C154.46 133.101 154.485 133.13 154.495 133.141L154.495 133.141C154.52 133.171 154.551 133.202 154.583 133.236L154.584 133.237C154.713 133.37 154.89 133.552 154.984 133.844C155.031 133.991 155.053 134.148 155.053 134.34C155.049 134.435 154.96 135.962 154.003 137.305C153.781 137.616 153.493 137.933 153.188 138.269C152.221 139.335 151.017 140.661 150.813 142.905C150.733 143.789 150.775 144.119 150.792 144.206C150.814 144.248 150.832 144.293 150.844 144.339C150.845 144.344 151.027 144.814 153.105 145.344C154.298 145.649 155.463 145.804 155.475 145.805C156.466 145.983 157.349 146.236 158.122 146.56L166.861 137.822C171.547 133.135 171.547 125.538 166.861 120.851L155.495 109.485C150.809 104.799 143.211 104.799 138.524 109.485L127.158 120.851Z" fill="#D1D5DB"/>
<rect x="130.51" y="178.464" width="6" height="6" rx="3" fill="#718095"/>
<rect x="139.51" y="178.464" width="6" height="6" rx="3" fill="#718095"/>
<rect x="148.51" y="178.464" width="6" height="6" rx="3" fill="#718095"/>
<rect x="157.51" y="178.464" width="6" height="6" rx="3" fill="#718095"/>
<rect x="135.51" y="169.998" width="24.9562" height="3.46614" rx="1.73307" fill="#0DCBFD"/>
<rect x="202.8" y="158.452" width="12.4781" height="5.54583" rx="2.77291" fill="#D1D5DB"/>
<rect x="219.437" y="158.452" width="24.9562" height="5.54583" rx="2.77291" fill="#D1D5DB"/>
<rect x="195.346" y="129.337" width="40.0739" height="40.0739" rx="12" transform="rotate(-45 195.346 129.337)" fill="#95999F"/>
<path d="M203.831 137.822C199.145 133.135 199.145 125.538 203.831 120.851L215.197 109.485C219.884 104.799 227.482 104.799 232.168 109.485L243.534 120.851C248.22 125.538 248.22 133.135 243.534 137.822L232.168 149.188C227.482 153.874 219.884 153.874 215.197 149.188L203.831 137.822Z" fill="#D1D5DB"/>
<rect x="207.183" y="178.464" width="6" height="6" rx="3" fill="#718095"/>
<rect x="216.183" y="178.464" width="6" height="6" rx="3" fill="#718095"/>
<rect x="225.183" y="178.464" width="6" height="6" rx="3" fill="#718095"/>
<rect x="234.183" y="178.464" width="6" height="6" rx="3" fill="#718095"/>
<rect x="212.183" y="169.998" width="24.9562" height="3.46614" rx="1.73307" fill="#3A424D"/>
<path d="M75.7048 55.4V57.272H71.6908V68H69.8188V57.272H65.8138V55.4H75.7048ZM83.013 59H84.885V68H83.004L82.932 66.695C82.668 67.157 82.311 67.529 81.861 67.811C81.417 68.093 80.889 68.234 80.277 68.234C79.611 68.234 78.987 68.111 78.405 67.865C77.829 67.613 77.319 67.265 76.875 66.821C76.437 66.377 76.092 65.867 75.84 65.291C75.594 64.709 75.471 64.085 75.471 63.419C75.471 62.777 75.591 62.174 75.831 61.61C76.071 61.04 76.404 60.542 76.83 60.116C77.256 59.69 77.748 59.357 78.306 59.117C78.87 58.871 79.473 58.748 80.115 58.748C80.769 58.748 81.345 58.898 81.843 59.198C82.347 59.492 82.761 59.87 83.085 60.332L83.013 59ZM80.322 66.425C80.862 66.425 81.327 66.29 81.717 66.02C82.113 65.75 82.41 65.387 82.608 64.931C82.812 64.475 82.899 63.971 82.869 63.419C82.833 62.891 82.692 62.411 82.446 61.979C82.206 61.547 81.885 61.205 81.483 60.953C81.081 60.695 80.625 60.566 80.115 60.566C79.581 60.566 79.098 60.701 78.666 60.971C78.24 61.241 77.91 61.604 77.676 62.06C77.442 62.516 77.34 63.023 77.37 63.581C77.406 64.103 77.562 64.58 77.838 65.012C78.12 65.444 78.477 65.789 78.909 66.047C79.347 66.299 79.818 66.425 80.322 66.425ZM87.039 59H88.911V68H87.039V59ZM87.984 57.515C87.702 57.515 87.465 57.422 87.273 57.236C87.081 57.05 86.985 56.816 86.985 56.534C86.985 56.258 87.081 56.027 87.273 55.841C87.465 55.649 87.702 55.553 87.984 55.553C88.26 55.553 88.494 55.649 88.686 55.841C88.878 56.027 88.974 56.258 88.974 56.534C88.974 56.816 88.878 57.05 88.686 57.236C88.494 57.422 88.26 57.515 87.984 57.515ZM91.8579 68V54.5H93.7209V68H91.8579ZM95.9863 63.698V59H97.8583V63.662C97.8583 64.172 97.9633 64.637 98.1733 65.057C98.3893 65.471 98.6803 65.804 99.0463 66.056C99.4183 66.302 99.8413 66.425 100.315 66.425C100.777 66.425 101.182 66.302 101.53 66.056C101.884 65.804 102.157 65.471 102.349 65.057C102.547 64.637 102.646 64.172 102.646 63.662V59H104.518V68H102.646V66.776C102.334 67.226 101.956 67.583 101.512 67.847C101.068 68.111 100.567 68.243 100.009 68.243C99.2053 68.243 98.5003 68.039 97.8943 67.631C97.2943 67.217 96.8293 66.665 96.4993 65.975C96.1693 65.285 95.9983 64.526 95.9863 63.698ZM109.464 68.171C108.99 68.141 108.528 68.045 108.078 67.883C107.628 67.721 107.232 67.502 106.89 67.226C106.554 66.944 106.302 66.614 106.134 66.236L107.727 65.552C107.805 65.714 107.94 65.873 108.132 66.029C108.33 66.185 108.561 66.314 108.825 66.416C109.089 66.512 109.365 66.56 109.653 66.56C109.935 66.56 110.196 66.521 110.436 66.443C110.682 66.359 110.883 66.233 111.039 66.065C111.195 65.897 111.273 65.696 111.273 65.462C111.273 65.198 111.183 64.994 111.003 64.85C110.829 64.7 110.61 64.586 110.346 64.508C110.082 64.43 109.818 64.355 109.554 64.283C108.966 64.151 108.426 63.971 107.934 63.743C107.448 63.509 107.061 63.212 106.773 62.852C106.485 62.486 106.341 62.039 106.341 61.511C106.341 60.935 106.494 60.437 106.8 60.017C107.112 59.591 107.523 59.264 108.033 59.036C108.543 58.808 109.086 58.694 109.662 58.694C110.382 58.694 111.042 58.847 111.642 59.153C112.242 59.459 112.701 59.879 113.019 60.413L111.534 61.295C111.444 61.115 111.309 60.953 111.129 60.809C110.949 60.665 110.745 60.551 110.517 60.467C110.289 60.377 110.052 60.326 109.806 60.314C109.5 60.302 109.215 60.338 108.951 60.422C108.693 60.5 108.486 60.626 108.33 60.8C108.174 60.974 108.096 61.196 108.096 61.466C108.096 61.73 108.189 61.928 108.375 62.06C108.561 62.186 108.795 62.288 109.077 62.366C109.365 62.444 109.659 62.531 109.959 62.627C110.493 62.795 110.994 63.002 111.462 63.248C111.93 63.488 112.308 63.785 112.596 64.139C112.884 64.493 113.022 64.925 113.01 65.435C113.01 65.999 112.839 66.494 112.497 66.92C112.161 67.346 111.723 67.67 111.183 67.892C110.643 68.114 110.07 68.207 109.464 68.171ZM123.947 68.234C122.939 68.234 122.06 67.988 121.31 67.496C120.566 67.004 119.987 66.344 119.573 65.516C119.165 64.682 118.961 63.758 118.961 62.744V55.4H120.833V62.744C120.833 63.404 120.953 64.01 121.193 64.562C121.439 65.108 121.793 65.546 122.255 65.876C122.723 66.2 123.287 66.362 123.947 66.362C124.625 66.362 125.195 66.2 125.657 65.876C126.119 65.546 126.467 65.108 126.701 64.562C126.941 64.01 127.061 63.404 127.061 62.744V55.4H128.933V62.744C128.933 63.506 128.816 64.22 128.582 64.886C128.348 65.546 128.012 66.128 127.574 66.632C127.136 67.136 126.611 67.529 125.999 67.811C125.387 68.093 124.703 68.234 123.947 68.234ZM131.36 68V55.4H133.232V68H131.36ZM139.984 68V55.4H141.856V66.128H147.283V68H139.984ZM152.417 68.234C151.589 68.234 150.833 68.021 150.149 67.595C149.471 67.169 148.928 66.599 148.52 65.885C148.118 65.165 147.917 64.37 147.917 63.5C147.917 62.84 148.034 62.225 148.268 61.655C148.502 61.079 148.823 60.575 149.231 60.143C149.645 59.705 150.125 59.363 150.671 59.117C151.217 58.871 151.799 58.748 152.417 58.748C153.107 58.748 153.74 58.892 154.316 59.18C154.892 59.462 155.384 59.855 155.792 60.359C156.2 60.857 156.5 61.433 156.692 62.087C156.884 62.735 156.941 63.425 156.863 64.157H149.924C150.002 64.571 150.152 64.946 150.374 65.282C150.602 65.612 150.89 65.873 151.238 66.065C151.592 66.257 151.985 66.356 152.417 66.362C152.873 66.362 153.287 66.248 153.659 66.02C154.037 65.792 154.346 65.477 154.586 65.075L156.485 65.516C156.125 66.314 155.582 66.968 154.856 67.478C154.13 67.982 153.317 68.234 152.417 68.234ZM149.861 62.726H154.973C154.913 62.294 154.76 61.904 154.514 61.556C154.274 61.202 153.971 60.923 153.605 60.719C153.245 60.509 152.849 60.404 152.417 60.404C151.991 60.404 151.595 60.506 151.229 60.71C150.869 60.914 150.569 61.193 150.329 61.547C150.095 61.895 149.939 62.288 149.861 62.726ZM165.454 59H167.326V68H165.445L165.373 66.695C165.109 67.157 164.752 67.529 164.302 67.811C163.858 68.093 163.33 68.234 162.718 68.234C162.052 68.234 161.428 68.111 160.846 67.865C160.27 67.613 159.76 67.265 159.316 66.821C158.878 66.377 158.533 65.867 158.281 65.291C158.035 64.709 157.912 64.085 157.912 63.419C157.912 62.777 158.032 62.174 158.272 61.61C158.512 61.04 158.845 60.542 159.271 60.116C159.697 59.69 160.189 59.357 160.747 59.117C161.311 58.871 161.914 58.748 162.556 58.748C163.21 58.748 163.786 58.898 164.284 59.198C164.788 59.492 165.202 59.87 165.526 60.332L165.454 59ZM162.763 66.425C163.303 66.425 163.768 66.29 164.158 66.02C164.554 65.75 164.851 65.387 165.049 64.931C165.253 64.475 165.34 63.971 165.31 63.419C165.274 62.891 165.133 62.411 164.887 61.979C164.647 61.547 164.326 61.205 163.924 60.953C163.522 60.695 163.066 60.566 162.556 60.566C162.022 60.566 161.539 60.701 161.107 60.971C160.681 61.241 160.351 61.604 160.117 62.06C159.883 62.516 159.781 63.023 159.811 63.581C159.847 64.103 160.003 64.58 160.279 65.012C160.561 65.444 160.918 65.789 161.35 66.047C161.788 66.299 162.259 66.425 162.763 66.425ZM176.193 54.5H178.065V68H176.193V66.677C175.899 67.145 175.515 67.523 175.041 67.811C174.567 68.093 174.012 68.234 173.376 68.234C172.722 68.234 172.11 68.111 171.54 67.865C170.97 67.619 170.466 67.28 170.028 66.848C169.596 66.41 169.257 65.906 169.011 65.336C168.765 64.766 168.642 64.154 168.642 63.5C168.642 62.846 168.765 62.234 169.011 61.664C169.257 61.088 169.596 60.584 170.028 60.152C170.466 59.714 170.97 59.372 171.54 59.126C172.11 58.88 172.722 58.757 173.376 58.757C174.012 58.757 174.567 58.901 175.041 59.189C175.515 59.471 175.899 59.843 176.193 60.305V54.5ZM173.394 66.425C173.922 66.425 174.384 66.296 174.78 66.038C175.176 65.774 175.482 65.42 175.698 64.976C175.92 64.532 176.031 64.04 176.031 63.5C176.031 62.954 175.92 62.459 175.698 62.015C175.476 61.571 175.167 61.22 174.771 60.962C174.381 60.698 173.922 60.566 173.394 60.566C172.872 60.566 172.395 60.698 171.963 60.962C171.537 61.226 171.195 61.58 170.937 62.024C170.685 62.468 170.559 62.96 170.559 63.5C170.559 64.046 170.688 64.541 170.946 64.985C171.21 65.423 171.555 65.774 171.981 66.038C172.413 66.296 172.884 66.425 173.394 66.425ZM184.181 68.234C183.353 68.234 182.597 68.021 181.913 67.595C181.235 67.169 180.692 66.599 180.284 65.885C179.882 65.165 179.681 64.37 179.681 63.5C179.681 62.84 179.798 62.225 180.032 61.655C180.266 61.079 180.587 60.575 180.995 60.143C181.409 59.705 181.889 59.363 182.435 59.117C182.981 58.871 183.563 58.748 184.181 58.748C184.871 58.748 185.504 58.892 186.08 59.18C186.656 59.462 187.148 59.855 187.556 60.359C187.964 60.857 188.264 61.433 188.456 62.087C188.648 62.735 188.705 63.425 188.627 64.157H181.688C181.766 64.571 181.916 64.946 182.138 65.282C182.366 65.612 182.654 65.873 183.002 66.065C183.356 66.257 183.749 66.356 184.181 66.362C184.637 66.362 185.051 66.248 185.423 66.02C185.801 65.792 186.11 65.477 186.35 65.075L188.249 65.516C187.889 66.314 187.346 66.968 186.62 67.478C185.894 67.982 185.081 68.234 184.181 68.234ZM181.625 62.726H186.737C186.677 62.294 186.524 61.904 186.278 61.556C186.038 61.202 185.735 60.923 185.369 60.719C185.009 60.509 184.613 60.404 184.181 60.404C183.755 60.404 183.359 60.506 182.993 60.71C182.633 60.914 182.333 61.193 182.093 61.547C181.859 61.895 181.703 62.288 181.625 62.726ZM195.454 60.881C195.298 60.785 195.127 60.71 194.941 60.656C194.761 60.596 194.563 60.566 194.347 60.566C193.879 60.566 193.471 60.689 193.123 60.935C192.775 61.181 192.502 61.514 192.304 61.934C192.112 62.354 192.016 62.819 192.016 63.329V68H190.135V59H192.007V60.215C192.319 59.765 192.697 59.411 193.141 59.153C193.591 58.889 194.092 58.757 194.644 58.757C194.848 58.757 195.04 58.766 195.22 58.784C195.406 58.802 195.583 58.838 195.751 58.892L195.454 60.881ZM199.886 68.171C199.412 68.141 198.95 68.045 198.5 67.883C198.05 67.721 197.654 67.502 197.312 67.226C196.976 66.944 196.724 66.614 196.556 66.236L198.149 65.552C198.227 65.714 198.362 65.873 198.554 66.029C198.752 66.185 198.983 66.314 199.247 66.416C199.511 66.512 199.787 66.56 200.075 66.56C200.357 66.56 200.618 66.521 200.858 66.443C201.104 66.359 201.305 66.233 201.461 66.065C201.617 65.897 201.695 65.696 201.695 65.462C201.695 65.198 201.605 64.994 201.425 64.85C201.251 64.7 201.032 64.586 200.768 64.508C200.504 64.43 200.24 64.355 199.976 64.283C199.388 64.151 198.848 63.971 198.356 63.743C197.87 63.509 197.483 63.212 197.195 62.852C196.907 62.486 196.763 62.039 196.763 61.511C196.763 60.935 196.916 60.437 197.222 60.017C197.534 59.591 197.945 59.264 198.455 59.036C198.965 58.808 199.508 58.694 200.084 58.694C200.804 58.694 201.464 58.847 202.064 59.153C202.664 59.459 203.123 59.879 203.441 60.413L201.956 61.295C201.866 61.115 201.731 60.953 201.551 60.809C201.371 60.665 201.167 60.551 200.939 60.467C200.711 60.377 200.474 60.326 200.228 60.314C199.922 60.302 199.637 60.338 199.373 60.422C199.115 60.5 198.908 60.626 198.752 60.8C198.596 60.974 198.518 61.196 198.518 61.466C198.518 61.73 198.611 61.928 198.797 62.06C198.983 62.186 199.217 62.288 199.499 62.366C199.787 62.444 200.081 62.531 200.381 62.627C200.915 62.795 201.416 63.002 201.884 63.248C202.352 63.488 202.73 63.785 203.018 64.139C203.306 64.493 203.444 64.925 203.432 65.435C203.432 65.999 203.261 66.494 202.919 66.92C202.583 67.346 202.145 67.67 201.605 67.892C201.065 68.114 200.492 68.207 199.886 68.171ZM213.384 63.293V68H211.512V63.329C211.512 62.819 211.404 62.354 211.188 61.934C210.978 61.514 210.696 61.181 210.342 60.935C209.988 60.689 209.595 60.566 209.163 60.566C208.695 60.566 208.296 60.689 207.966 60.935C207.636 61.181 207.381 61.514 207.201 61.934C207.027 62.354 206.94 62.819 206.94 63.329V68H205.059V54.5H206.931V60.053C207.183 59.567 207.513 59.231 207.921 59.045C208.335 58.853 208.809 58.757 209.343 58.757C210.153 58.757 210.858 58.964 211.458 59.378C212.058 59.792 212.526 60.344 212.862 61.034C213.198 61.718 213.372 62.471 213.384 63.293ZM215.184 59H217.056V68H215.184V59ZM216.129 57.515C215.847 57.515 215.61 57.422 215.418 57.236C215.226 57.05 215.13 56.816 215.13 56.534C215.13 56.258 215.226 56.027 215.418 55.841C215.61 55.649 215.847 55.553 216.129 55.553C216.405 55.553 216.639 55.649 216.831 55.841C217.023 56.027 217.119 56.258 217.119 56.534C217.119 56.816 217.023 57.05 216.831 57.236C216.639 57.422 216.405 57.515 216.129 57.515ZM221.643 72.5H219.771V59H221.643V60.323C221.943 59.861 222.327 59.486 222.795 59.198C223.263 58.91 223.815 58.766 224.451 58.766C225.105 58.766 225.717 58.889 226.287 59.135C226.863 59.381 227.367 59.723 227.799 60.161C228.231 60.593 228.57 61.094 228.816 61.664C229.062 62.234 229.185 62.846 229.185 63.5C229.185 64.154 229.062 64.769 228.816 65.345C228.57 65.921 228.231 66.428 227.799 66.866C227.367 67.298 226.863 67.637 226.287 67.883C225.717 68.129 225.105 68.252 224.451 68.252C223.815 68.252 223.263 68.108 222.795 67.82C222.327 67.526 221.943 67.151 221.643 66.695V72.5ZM224.433 60.575C223.911 60.575 223.452 60.707 223.056 60.971C222.66 61.235 222.351 61.589 222.129 62.033C221.907 62.471 221.796 62.96 221.796 63.5C221.796 64.04 221.907 64.532 222.129 64.976C222.351 65.42 222.66 65.774 223.056 66.038C223.452 66.302 223.911 66.434 224.433 66.434C224.949 66.434 225.423 66.305 225.855 66.047C226.287 65.783 226.632 65.429 226.89 64.985C227.148 64.541 227.277 64.046 227.277 63.5C227.277 62.966 227.148 62.477 226.89 62.033C226.638 61.589 226.296 61.235 225.864 60.971C225.432 60.707 224.955 60.575 224.433 60.575Z" fill="white"/>
<rect x="86" y="77" width="124" height="6" rx="3" fill="#4B5563"/>
</svg>
