<svg width="112" height="118" viewBox="0 0 112 118" fill="none" xmlns="http://www.w3.org/2000/svg">
<path fill-rule="evenodd" clip-rule="evenodd" d="M70.2518 13.2155L69.7575 12.9304C61.244 8.02142 50.755 8.02142 42.2413 12.9304L22.9299 24.0657C14.4165 28.9747 9.17197 38.0469 9.17197 47.8649V70.1354C9.17197 79.9534 14.4165 89.0258 22.9299 93.9343L42.2413 105.07C50.755 109.979 61.244 109.979 69.7575 105.07L89.0686 93.9343C97.582 89.0258 102.827 79.9534 102.827 70.1354V47.8649C102.827 40.6398 99.9864 33.8186 95.0932 28.7632C97.4917 26.7172 99.2518 23.947 100.034 20.7915C107.568 27.6535 111.999 37.4441 111.999 47.8649V70.1354C111.999 83.2259 105.006 95.3221 93.6546 101.868L74.3434 113.003C62.9917 119.548 49.0068 119.548 37.6554 113.003L18.3439 101.868C6.99266 95.3221 0 83.2259 0 70.1354V47.8649C0 34.7742 6.99266 22.678 18.3439 16.1326L37.6554 4.99737C49.0068 -1.54795 62.9917 -1.54795 74.3434 4.99737L75.1189 5.44458C72.7801 7.44981 71.0516 10.1457 70.2518 13.2155Z" fill="#0DCBFD"/>
<path d="M28.9414 59.2289C28.9414 44.4311 40.9527 32.4351 55.7696 32.4351C70.586 32.4351 82.5976 44.4311 82.5976 59.2289C82.5976 74.027 70.586 86.0228 55.7696 86.0228C40.9527 86.0228 28.9414 74.027 28.9414 59.2289Z" fill="#0DCBFD"/>
<path d="M95.4377 16.634C95.4377 10.9425 90.818 6.32861 85.1193 6.32861C79.4205 6.32861 74.8008 10.9425 74.8008 16.634C74.8008 22.3254 79.4205 26.9393 85.1193 26.9393C90.818 26.9393 95.4377 22.3254 95.4377 16.634Z" fill="#0DCBFD"/>
</svg>
